<svg xmlns="http://www.w3.org/2000/svg" data-name="Layer 1" width="800" height="500" viewBox="0 0 800 500"><path d="M649.73,175.23c.12,4.73-8.67,8.68-19.71,8.85s-20.04-3.58-20.16-8.31,8.67-8.68,19.71-8.85,20.04,3.58,20.16,8.31Z" fill="#0a5640"/><path d="M652.47,287.91c-2.76,14.22-18.52,23.54-35.23,20.82-16.71-2.72-28.03-16.76-25.27-30.98,2.76-14.22,18.52-23.54,35.23-20.82,16.71,2.72,28.03,16.76,25.27,30.98Z" fill="#2f2e41"/><path d="M637.9,276.06c-5.92,3.94-14.46,1.77-19.05-4.85-4.59-6.62-3.5-15.39,2.42-19.33,5.92-3.94,14.46-1.77,19.05,4.85,4.59,6.62,3.5,15.39-2.42,19.33Z" fill="#ffb8b8"/><path d="M635.34,270.66c-.33,.06-5.97-2.38-7.48-3.09-1.51-.71-1.98-1.06-2.27-.95-.29,.11-.62,.53-.36,1.87,0,0-15.14-5.32-21.55-8.19-6.41-2.87-5.32-6.85,1.55-11.28,0,0,10.19,1.43,17.51,2.79,7.32,1.36,14.19,3.7,14.19,3.7,0,0,.89-1.34,.09-3.11-.8-1.77-1.42-1.95-.98-2.84,.45-.89,1.33-.44,1.33-.44,0,0,1.78,3.73,4.45,5.81,2.67,2.08,4.89,2.13,4.44,5.59-.45,3.46-2.58,7.74-5.15,9.15-2.56,1.41-5.43,1.06-5.77,.99Z" fill="#2f2e41"/><path d="M624.62,292.28l-35.68-13.61s-13.38,15.92-2.54,40.58c10.84,24.66,7.04,26.93,7.04,26.93l42.72,5.07,11.27-19.73-12.11-3.38-10.7-35.85Z" fill="#2f2e41"/><path d="M621.23,344.32l-3.38,33.81s-2.54,22.96-5.07,26.34c-2.54,3.38-7.61,14.22-7.61,14.22l10.14,8.45,15.21-21.27,8.45-22.96,5.91-25.5-23.66-13.1Z" fill="#2f2e41"/><path d="M640.96,344.32l3.38,33.81s2.54,22.96,5.07,26.34c2.54,3.38,7.61,14.22,7.61,14.22l-10.14,8.45-15.21-21.27-8.45-22.96-5.91-25.5,23.66-13.1Z" fill="#2f2e41"/><path d="M631.39,352.77s16.05-8.45,19.43,0c3.38,8.45,4.22,9.29,3.38,11.83-.84,2.54-5.91,19.43-5.91,19.43,0,0,5.07,36.35,2.54,39.73-2.54,3.38-16.05,5.91-21.97,1.69-5.91-4.22-5.91-16.05-5.91-16.05l5.07-35.51-5.91-11.83,9.29-9.29Z" fill="#0a5640"/><path d="M631.39,352.77s-16.05-8.45-19.43,0c-3.38,8.45-4.22,9.29-3.38,11.83,.84,2.54,5.91,19.43,5.91,19.43,0,0-5.07,36.35-2.54,39.73,2.54,3.38,16.05,5.91,21.97,1.69,5.91-4.22,5.91-16.05,5.91-16.05l-5.07-35.51,5.91-11.83-9.29-9.29Z" fill="#0a5640"/><path d="M631.39,426.38s-5.91-4.22-7.61-1.69c-1.69,2.54-3.38,11.83-3.38,11.83,0,0-5.91,1.69-5.07,5.91,.84,4.22,5.91,5.07,11.83,5.91,5.91,.84,9.29-4.22,9.29-4.22l-5.07-17.74Z" fill="#ffb8b8"/><path d="M631.39,426.38s5.91-4.22,7.61-1.69c1.69,2.54,3.38,11.83,3.38,11.83,0,0,5.91,1.69,5.07,5.91-.84,4.22-5.91,5.07-11.83,5.91-5.91,.84-9.29-4.22-9.29-4.22l5.07-17.74Z" fill="#ffb8b8"/><path d="M587.82,288.9l-10.14,1.69s-5.91,16.05,0,21.12c5.91,5.07,22.96,11.83,22.96,11.83l5.07-10.14-11.83-10.14-6.06-14.36Z" fill="#2f2e41"/><path d="M659.55,288.9l10.14,1.69s5.91,16.05,0,21.12c-5.91,5.07-22.96,11.83-22.96,11.83l-5.07-10.14,11.83-10.14,6.06-14.36Z" fill="#2f2e41"/><path d="M624.62,292.28l-35.68-13.61s-13.38,15.92-2.54,40.58c10.84,24.66,7.04,26.93,7.04,26.93l42.72,5.07,11.27-19.73-12.11-3.38-10.7-35.85Z" fill="#2f2e41"/><path d="M631.39,292.28l35.68-13.61s13.38,15.92,2.54,40.58c-10.84,24.66-7.04,26.93-7.04,26.93l-42.72,5.07-11.27-19.73,12.11-3.38,10.7-35.85Z" fill="#2f2e41"/><path d="M622.08,270.31s-7.61-1.69-10.14,5.91c-2.54,7.61-5.91,14.36-5.91,14.36l15.21,5.07,8.45-12.68-7.61-12.68Z" fill="#2f2e41"/><path d="M633.92,270.31s7.61-1.69,10.14,5.91c2.54,7.61,5.91,14.36,5.91,14.36l-15.21,5.07-8.45-12.68,7.61-12.68Z" fill="#2f2e41"/><path d="M200,400H50c-27.57,0-50-22.43-50-50V50C0,22.43,22.43,0,50,0h150c27.57,0,50,22.43,50,50v300c0,27.57-22.43,50-50,50ZM50,10c-22.06,0-40,17.94-40,40v300c0,22.06,17.94,40,40,40h150c22.06,0,40-17.94,40-40V50c0-22.06-17.94-40-40-40H50Z" fill="#f2f2f2"/><path d="M125,190c-24.81,0-45-20.19-45-45s20.19-45,45-45,45,20.19,45,45-20.19,45-45,45Zm0-80c-19.3,0-35,15.7-35,35s15.7,35,35,35,35-15.7,35-35-15.7-35-35-35Z" fill="#0a5640"/><path d="M50,330c0-41.35,33.65-75,75-75,8.08,0,15.85,1.29,23.15,3.67,6.85,2.23,10.61,9.58,8.38,16.43-2.23,6.85-9.58,10.61-16.43,8.38-4.87-1.58-10.03-2.48-15.1-2.48-27.02,0-49,21.98-49,49,0,6.08,.9,11.95,2.57,17.5,2.11,6.97-1.84,14.36-8.81,16.47-1.27,.39-2.56,.57-3.83,.57-5.69,0-10.95-3.69-12.64-9.38-2.54-8.38-3.29-16.36-3.29-24.16Z" fill="#0a5640"/><path d="M174.5,330c0,6.6-1.08,13.29-3.29,19.93-1.69,5.1-6.43,8.33-11.55,8.33-1.27,0-2.56-.19-3.83-.57-6.38-2.11-9.79-9.01-7.68-15.39,1.32-4,2.35-9.12,2.35-12.29,0-27.02-21.98-49-49-49-27.02,0-49,21.98-49,49s21.98,49,49,49c4.25,0,8.5-.57,12.75-1.7,6.85-1.8,13.86,2.28,15.67,9.13,1.8,6.85-2.28,13.86-9.13,15.67-6.27,1.65-12.75,2.91-19.29,2.91-41.35,0-75-33.65-75-75s33.65-75,75-75,75,33.65,75,75Z" fill="#0a5640"/></svg>
