<svg xmlns="http://www.w3.org/2000/svg" viewBox="0 0 800 600" width="800" height="600">
  <!-- Background -->
  <ellipse cx="400" cy="300" rx="380" ry="250" fill="#EBF5FB" opacity="0.8"/>
  
  <!-- Chat bubbles -->
  <rect x="120" y="60" width="180" height="60" rx="10" fill="#AED6F1" opacity="0.7"/>
  <rect x="140" y="75" width="140" height="8" rx="2" fill="white" opacity="0.9"/>
  <rect x="140" y="95" width="100" height="8" rx="2" fill="white" opacity="0.9"/>
  
  <rect x="600" y="120" width="150" height="60" rx="10" fill="#AED6F1" opacity="0.7"/>
  <rect x="620" y="135" width="110" height="8" rx="2" fill="white" opacity="0.9"/>
  <rect x="620" y="155" width="80" height="8" rx="2" fill="white" opacity="0.9"/>
  
  <!-- Stats bar -->
  <rect x="120" y="180" width="15" height="200" fill="#3498DB" opacity="0.7"/>
  
  <!-- Browser window -->
  <rect x="450" y="80" width="200" height="150" rx="5" fill="#2E86C1"/>
  <rect x="450" y="105" width="200" height="125" rx="2" fill="white"/>
  <rect x="450" y="80" width="200" height="25" rx="5" fill="#2E86C1"/>
  <circle cx="465" cy="92" r="5" fill="white" opacity="0.7"/>
  <circle cx="485" cy="92" r="5" fill="white" opacity="0.7"/>
  <circle cx="505" cy="92" r="5" fill="white" opacity="0.7"/>
  
  <!-- Profile in browser -->
  <circle cx="550" cy="140" r="25" fill="#D6DBDF"/>
  <rect x="510" cy="180" width="80" height="8" rx="2" fill="#D6DBDF"/>
  <rect x="520" cy="195" width="60" height="8" rx="2" fill="#D6DBDF"/>
  <rect x="535" cy="210" width="30" height="10" rx="5" fill="#3498DB"/>
  
  <!-- Desk -->
  <rect x="200" y="350" width="350" height="15" rx="2" fill="#85C1E9"/>
  <rect x="230" y="365" width="15" height="150" fill="#85C1E9"/>
  <rect x="505" y="365" width="15" height="150" fill="#85C1E9"/>
  
  <!-- Person -->
  <g transform="translate(320, 250)">
    <!-- Head -->
    <circle cx="50" cy="50" r="35" fill="#FBEEE6"/>
    <path d="M25,45 Q50,30 75,45" stroke="#2C3E50" stroke-width="3" fill="none"/>
    <circle cx="35" cy="40" r="3" fill="#2C3E50"/>
    <circle cx="65" cy="40" r="3" fill="#2C3E50"/>
    <path d="M30,30 Q40,15 50,20 Q60,15 70,30" fill="#2C3E50"/>
    
    <!-- Body -->
    <rect x="35" y="85" width="30" height="70" rx="10" fill="#E74C3C"/>
    <rect x="20" y="155" width="60" height="100" rx="5" fill="#2C3E50"/>
    
    <!-- Arms -->
    <path d="M35,100 Q0,130 20,160" stroke="#E74C3C" stroke-width="15" fill="none"/>
    <path d="M65,100 Q120,120 100,150" stroke="#E74C3C" stroke-width="15" fill="none"/>
    
    <!-- Legs -->
    <rect x="25" y="255" width="20" height="60" rx="5" fill="#2C3E50"/>
    <rect x="55" y="255" width="20" height="60" rx="5" fill="#2C3E50"/>
    <rect x="20" y="315" width="30" height="10" rx="5" fill="#7F8C8D"/>
    <rect x="50" y="315" width="30" height="10" rx="5" fill="#7F8C8D"/>
    <rect x="25" y="255" width="20" height="10" fill="white" opacity="0.3"/>
    <rect x="55" y="255" width="20" height="10" fill="white" opacity="0.3"/>
  </g>
  
  <!-- Laptop -->
  <g transform="translate(380, 280)">
    <rect x="0" y="0" width="150" height="80" rx="5" fill="#34495E"/>
    <rect x="5" y="5" width="140" height="70" fill="#FFFFFF"/>
    <rect x="0" y="80" width="150" height="10" rx="2" fill="#34495E"/>
  </g>
  
  <!-- Desk lamp -->
  <g transform="translate(550, 280)">
    <rect x="0" y="0" width="8" height="70" fill="#7F8C8D"/>
    <rect x="-15" y="0" width="38" height="8" fill="#7F8C8D"/>
    <path d="M-15,0 L-35,-40 L10,-40 L23,0" fill="#E74C3C"/>
    <circle cx="-12.5" cy="-20" r="5" fill="#F1C40F" opacity="0.8"/>
  </g>
  
  <!-- Plant -->
  <g transform="translate(180, 300)">
    <rect x="0" y="50" width="40" height="50" rx="5" fill="#E74C3C"/>
    <path d="M20,50 C-20,30 0,-20 20,0 C40,-20 60,30 20,50" fill="#1A5276"/>
    <path d="M20,40 C-10,30 -30,0 -10,-20 C0,-10 10,0 20,40" fill="#1A5276"/>
    <path d="M20,40 C50,30 70,0 50,-20 C40,-10 30,0 20,40" fill="#1A5276"/>
  </g>
  
  <!-- Trash bin -->
  <g transform="translate(600, 450)">
    <path d="M0,0 L10,-10 L50,-10 L60,0 Z" fill="#7F8C8D"/>
    <path d="M10,0 L10,-10 L50,-10 L50,0 L60,0 L60,60 L0,60 L0,0 Z" fill="#BDC3C7"/>
    <path d="M20,10 L20,50 M30,10 L30,50 M40,10 L40,50" stroke="#7F8C8D" stroke-width="2" fill="none"/>
  </g>
</svg>
