<svg xmlns="http://www.w3.org/2000/svg" width="600" height="400" viewBox="0 0 600 400">
  <style>
    .primary-color { fill: #0B5345; }
    .secondary-color { fill: #1A5276; }
    .accent-color { fill: #922B21; }
    .light-color { fill: #F5F5F5; }
    .medium-color { fill: #D5D8DC; }
    .red { fill: #E74C3C; }
    .blue { fill: #3498DB; }
    .dark { fill: #2C3E50; }
    .plant-green { fill: #1A5276; }
    .skin { fill: #FBEEE6; }
  </style>
  
  <!-- Background shape -->
  <ellipse cx="300" cy="200" rx="280" ry="180" fill="#EBF5FB" opacity="0.8"/>
  
  <!-- Chat bubbles -->
  <rect x="100" y="50" width="120" height="40" rx="10" class="blue" opacity="0.3"/>
  <rect x="110" y="60" width="80" height="5" rx="2" fill="white" opacity="0.7"/>
  <rect x="110" y="70" width="60" height="5" rx="2" fill="white" opacity="0.7"/>
  
  <rect x="450" y="100" width="100" height="40" rx="10" class="blue" opacity="0.3"/>
  <rect x="460" y="110" width="70" height="5" rx="2" fill="white" opacity="0.7"/>
  <rect x="460" y="120" width="50" height="5" rx="2" fill="white" opacity="0.7"/>
  
  <!-- Desk -->
  <rect x="150" y="230" width="220" height="10" rx="2" fill="#85C1E9"/>
  <rect x="170" y="240" width="10" height="100" fill="#85C1E9"/>
  <rect x="340" y="240" width="10" height="100" fill="#85C1E9"/>
  
  <!-- Person -->
  <g transform="translate(220, 180)">
    <!-- Head -->
    <circle cx="30" cy="30" r="20" class="skin"/>
    <path d="M15,25 Q30,15 45,25" stroke="#2C3E50" stroke-width="3" fill="none"/>
    <circle cx="22" cy="25" r="2" fill="#2C3E50"/>
    <circle cx="38" cy="25" r="2" fill="#2C3E50"/>
    
    <!-- Body -->
    <rect x="20" y="50" width="20" height="40" rx="5" class="red"/>
    <rect x="10" y="90" width="40" height="60" rx="2" class="dark"/>
    
    <!-- Arms -->
    <path d="M20,60 Q0,80 10,100" stroke="#E74C3C" stroke-width="8" fill="none"/>
    <path d="M40,60 Q70,75 60,90" stroke="#E74C3C" stroke-width="8" fill="none"/>
    
    <!-- Legs -->
    <rect x="15" y="150" width="10" height="30" rx="3" fill="#2C3E50"/>
    <rect x="35" y="150" width="10" height="30" rx="3" fill="#2C3E50"/>
    <rect x="10" y="180" width="20" height="5" rx="2" fill="#7F8C8D"/>
    <rect x="30" y="180" width="20" height="5" rx="2" fill="#7F8C8D"/>
  </g>
  
  <!-- Laptop -->
  <g transform="translate(250, 180)">
    <rect x="0" y="0" width="100" height="60" rx="3" fill="#34495E"/>
    <rect x="5" y="5" width="90" height="50" fill="#FFFFFF"/>
    <rect x="0" y="60" width="100" height="10" rx="2" fill="#34495E"/>
    
    <!-- Screen content - login form -->
    <circle cx="50" cy="20" r="10" fill="#BDC3C7"/>
    <rect x="30" y="35" width="40" height="5" rx="1" fill="#BDC3C7"/>
    <rect x="25" y="45" width="50" height="5" rx="1" fill="#BDC3C7"/>
  </g>
  
  <!-- Desk lamp -->
  <g transform="translate(360, 180)">
    <rect x="0" y="0" width="5" height="40" fill="#7F8C8D"/>
    <rect x="-10" y="0" width="25" height="5" fill="#7F8C8D"/>
    <path d="M-10,0 L-20,-20 L5,-20 L15,0" fill="#E74C3C"/>
    <circle cx="-7.5" cy="-10" r="3" fill="#F1C40F" opacity="0.8"/>
  </g>
  
  <!-- Plant -->
  <g transform="translate(120, 200)">
    <rect x="0" y="30" width="20" height="25" rx="2" class="red"/>
    <path d="M10,30 L10,15 Q0,10 10,0 Q20,10 10,15" class="plant-green"/>
    <path d="M10,20 Q0,15 -5,5 Q5,10 10,20" class="plant-green"/>
    <path d="M10,20 Q20,15 25,5 Q15,10 10,20" class="plant-green"/>
  </g>
  
  <!-- Trash bin -->
  <g transform="translate(400, 300)">
    <path d="M0,0 L5,-5 L25,-5 L30,0 Z" fill="#7F8C8D"/>
    <path d="M5,0 L5,-5 L25,-5 L25,0 L30,0 L30,30 L0,30 L0,0 Z" fill="#BDC3C7"/>
    <path d="M10,5 L10,25 M15,5 L15,25 M20,5 L20,25" stroke="#7F8C8D" stroke-width="1" fill="none"/>
  </g>
  
  <!-- Stats bar -->
  <rect x="80" y="150" width="10" height="100" fill="#3498DB" opacity="0.7"/>
</svg>
